{"title":"Safe 2012 R5 LiNE XviD-YanKeeS","uid":7300606,"size":733815680,"categoryP":"video","categoryS":"movies","magnet":"?xt=urn:btih:7c0b0e8ddf0863dcaa39536bf4545231c4b3ab88&amp;dn=Safe+2012+R5+LiNE+XviD-YanKeeS&amp;tr=udp%3A%2F%2Ftracker.openbittorrent.com%3A80&amp;tr=udp%3A%2F%2Fopen.demonii.com%3A1337&amp;tr=udp%3A%2F%2Ftracker.coppersurfer.tk%3A6969&amp;tr=udp%3A%2F%2Fexodus.desync.com%3A6969","seeders":8,"leechers":0,"uploader":"neon","files":-1,"time":1338027201,"description":" Mei, a young girl whose memory holds a priceless numerical code, finds herself pursued by the Triads, the Russian mob, and corrupt NYC cops. Coming to her aid is an ex-cage fighter whose life was destroyed by the gangsters on Mei's trail. \n &lt;a href=&quot;\nhttp://www.imdb.com/title/tt1656190/&quot; rel=&quot;nofollow&quot; target=&quot;_NEW&quot;&gt;\nhttp://www.imdb.com/title/tt1656190/&lt;/a&gt;\n &lt;a href=&quot;\nhttp://img62.imageshack.us/img62/2317/f629f4aa3f.png&quot; rel=&quot;nofollow&quot; target=&quot;_NEW&quot;&gt;\nhttp://img62.imageshack.us/img62/2317/f629f4aa3f.png&lt;/a&gt; &lt;a href=&quot;\nhttp://img201.imageshack.us/img201/7522/f354c52d86.png&quot; rel=&quot;nofollow&quot; target=&quot;_NEW&quot;&gt;\nhttp://img201.imageshack.us/img201/7522/f354c52d86.png&lt;/a&gt;\n\nsource Video: Za****nik.2012.D.DVDRip.avi\n Source Audio: UnKnOwN (Thanks)\n \nComplete name : Safe.2012.R5.LiNE.XviD-YanKeeS.avi\n Format : AVI\n Format/Info : Audio Video Interleave\n Format profile : OpenDML\n File size : 700 MiB\n Duration : 1h 30mn\n Overall bit rate : 1 083 Kbps\n \nVideo\n ID : 0\n Format : MPEG-4 Visual\n Format profile : Advanced Simple@L5\n Format settings, BVOP : 2\n Format settings, QPel : No\n Format settings, GMC : No warppoints\n Format settings, Matrix : Custom\n Codec ID : XVID\n Codec ID/Hint : XviD\n Duration : 1h 30mn\n Bit rate : 946 Kbps\n Width : 720 pixels\n Height : 304 pixels\n Display aspect ratio : 2.35:1\n Frame rate : 25.000 fps\n Color space : YUV\n Chroma subsampling : 4:2:0\n Bit depth : 8 bits\n Scan type : Progressive\n Compression mode : Lossy\n Bits/(Pixel*Frame) : 0.173\n Stream size : 611 MiB (87%)\n Writing library : XviD 1.2.1 (UTC 2008-12-04)\n \nAudio\n ID : 1\n Format : MPEG Audio\n Format version : Version 1\n Format profile : Layer 3\n Mode : Joint stereo\n Mode extension : MS Stereo\n Codec ID : 55\n Codec ID/Hint : MP3\n Duration : 1h 30mn\n Bit rate mode : Constant\n Bit rate : 128 Kbps\n Channel(s) : 2 channels\n Sampling rate : 48.0 KHz\n Compression mode : Lossy\n Stream size : 82.7 MiB (12%)\n Alignment : Aligned on interleaves\n Interleave, duration : 24 ms (0.60 video frame)\n Interleave, preload duration : 192 ms\n Title : English - YanKeeS ","torrent":{"xt":"urn:btih:7c0b0e8ddf0863dcaa39536bf4545231c4b3ab88","amp;dn":"Safe+2012+R5+LiNE+XviD-YanKeeS","amp;tr":["udp%3A%2F%2Ftracker.openbittorrent.com%3A80","udp%3A%2F%2Fopen.demonii.com%3A1337","udp%3A%2F%2Ftracker.coppersurfer.tk%3A6969","udp%3A%2F%2Fexodus.desync.com%3A6969"],"infoHash":"7c0b0e8ddf0863dcaa39536bf4545231c4b3ab88","infoHashBuffer":{"type":"Buffer","data":[124,11,14,141,223,8,99,220,170,57,83,107,244,84,82,49,196,179,171,136]},"announce":[],"urlList":[]}}